<svg xmlns="http://www.w3.org/2000/svg" viewBox="0 0 1024 1060.382"><path d="m522.24 245.356c43.444 0 78.662 35.218 78.662 78.662s-35.218 78.662-78.662 78.662-78.662-35.218-78.662-78.662c.053-43.422 35.24-78.61 78.657-78.662zm0 87.506c4.884 0 8.844-3.96 8.844-8.844s-3.96-8.844-8.844-8.844-8.844 3.96-8.844 8.844 3.96 8.844 8.844 8.844zm-179.34 170.216c-45.32-45.805-73.316-108.826-73.316-178.385s27.997-132.58 73.338-178.408l-.022.022 49.617 49.105c-32.687 33.267-52.866 78.917-52.866 129.28s20.179 96.013 52.893 129.308l-.026-.028zm358.587 1.536-49.43-49.338c33.118-33.287 53.59-79.184 53.59-129.862s-20.472-96.574-53.6-129.87l.01.008 49.43-49.338c45.702 45.934 73.953 109.268 73.953 179.2s-28.25 133.266-73.964 179.21l.01-.01zm-483.19 122.416c-77.37-77.543-125.21-184.574-125.21-302.78s47.84-225.235 125.218-302.785l-.007.007 49.338 49.338c-64.75 64.903-104.79 154.484-104.79 253.417s40.04 188.514 104.797 253.424l-.007-.006zm607.792 2.466-49.153-49.57c65.493-64.963 106.038-154.99 106.038-254.488s-40.544-189.526-106.014-254.464l-.023-.024 49.152-49.617c78.248 77.616 126.69 185.18 126.69 304.058s-48.442 226.443-126.662 304.03l-.028.03zm-118.366 404.574-207.126-657.224 66.56-20.945 207.127 657.222zm-370.968 0-66.607-20.993 207.173-657.175 66.56 20.945zm316.742-238.08h-262.515v-69.82h262.516zm174.546 262.515h-611.606v-69.818h611.607z" fill="#ffffff"/></svg>